<?xml version="1.0" encoding="UTF-8" standalone="no"?>
<!-- Created with Inkscape (http://www.inkscape.org/) -->

<svg
   xmlns:dc="http://purl.org/dc/elements/1.1/"
   xmlns:cc="http://creativecommons.org/ns#"
   xmlns:rdf="http://www.w3.org/1999/02/22-rdf-syntax-ns#"
   xmlns:svg="http://www.w3.org/2000/svg"
   xmlns="http://www.w3.org/2000/svg"
   xmlns:sodipodi="http://sodipodi.sourceforge.net/DTD/sodipodi-0.dtd"
   xmlns:inkscape="http://www.inkscape.org/namespaces/inkscape"
   width="90.030403mm"
   height="38.170872mm"
   viewBox="0 0 319.00537 135.25112"
   id="svg2"
   version="1.1"
   inkscape:version="0.91 r13725"
   sodipodi:docname="Logo -- Above Security.svg">
  <defs
     id="defs4">
    <clipPath
       id="clipPath3354"
       clipPathUnits="userSpaceOnUse">
      <path
         inkscape:connector-curvature="0"
         id="path3356"
         d="M 0,221 375,221 375,0 0,0 0,221 Z" />
    </clipPath>
  </defs>
  <sodipodi:namedview
     id="base"
     pagecolor="#ffffff"
     bordercolor="#666666"
     borderopacity="1.0"
     inkscape:pageopacity="0.0"
     inkscape:pageshadow="2"
     inkscape:zoom="0.35"
     inkscape:cx="357.35983"
     inkscape:cy="-358.08868"
     inkscape:document-units="px"
     inkscape:current-layer="layer1"
     showgrid="false"
     inkscape:showpageshadow="false"
     showborder="true"
     fit-margin-top="0"
     fit-margin-left="0"
     fit-margin-right="0"
     fit-margin-bottom="0"
     inkscape:window-width="1536"
     inkscape:window-height="803"
     inkscape:window-x="-8"
     inkscape:window-y="-8"
     inkscape:window-maximized="1" />
  <metadata
     id="metadata7">
    <rdf:RDF>
      <cc:Work
         rdf:about="">
        <dc:format>image/svg+xml</dc:format>
        <dc:type
           rdf:resource="http://purl.org/dc/dcmitype/StillImage" />
        <dc:title></dc:title>
      </cc:Work>
    </rdf:RDF>
  </metadata>
  <g
     inkscape:label="Layer 1"
     inkscape:groupmode="layer"
     id="layer1"
     transform="translate(-17.640169,-39.022395)">
    <g
       transform="matrix(1.25,0,0,-1.25,-81.581206,250.03427)"
       inkscape:label="Above Security Logo"
       id="g3344">
      <g
         transform="translate(89.4355,141.8135)"
         id="g3346">
        <path
           inkscape:connector-curvature="0"
           id="path3348"
           style="fill:#e07226;fill-opacity:1;fill-rule:nonzero;stroke:none"
           d="M 0,0 4.627,0 2.314,15.447 0,0 Z m 10.955,-9.689 -4.844,0 -0.83,5.543 -5.89,0 -0.83,-5.543 -4.409,0 4.889,30.548 7.025,0 4.889,-30.548 z" />
      </g>
      <g
         id="g3350">
        <g
           clip-path="url(#clipPath3354)"
           id="g3352">
          <g
             transform="translate(107.4141,145.8721)"
             id="g3358">
            <path
               inkscape:connector-curvature="0"
               id="path3360"
               style="fill:#e07226;fill-opacity:1;fill-rule:nonzero;stroke:none"
               d="m 0,0 0,-9.383 2.75,0 c 1.613,0 2.486,0.742 2.486,3.01 l 0,2.662 C 5.236,-0.873 4.32,0 2.139,0 L 0,0 Z m 0,12.438 0,-8.075 1.877,0 c 1.789,0 2.879,0.785 2.879,3.229 l 0,1.703 c 0,2.182 -0.74,3.143 -2.443,3.143 l -2.313,0 z m 9.557,-2.663 0,-1.091 c 0,-3.143 -0.959,-5.151 -3.098,-6.153 2.574,-1.004 3.578,-3.318 3.578,-6.547 l 0,-2.488 c 0,-4.713 -2.488,-7.244 -7.287,-7.244 l -7.551,0 0,30.549 7.244,0 c 4.975,0 7.114,-2.313 7.114,-7.026" />
          </g>
          <g
             transform="translate(124.7363,139.1514)"
             id="g3362">
            <path
               inkscape:connector-curvature="0"
               id="path3364"
               style="fill:#e07226;fill-opacity:1;fill-rule:nonzero;stroke:none"
               d="m 0,0 c 0,-2.182 0.961,-3.012 2.488,-3.012 1.528,0 2.487,0.83 2.487,3.012 l 0,16.496 c 0,2.182 -0.959,3.01 -2.487,3.01 C 0.961,19.506 0,18.678 0,16.496 L 0,0 Z m -4.801,16.189 c 0,4.889 2.576,7.682 7.289,7.682 4.713,0 7.287,-2.793 7.287,-7.682 l 0,-15.884 c 0,-4.887 -2.574,-7.68 -7.287,-7.68 -4.713,0 -7.289,2.793 -7.289,7.68 l 0,15.884 z" />
          </g>
          <g
             transform="translate(144.8086,137.7549)"
             id="g3366">
            <path
               inkscape:connector-curvature="0"
               id="path3368"
               style="fill:#e07226;fill-opacity:1;fill-rule:nonzero;stroke:none"
               d="m 0,0 3.666,24.918 4.408,0 -4.713,-30.549 -7.158,0 -4.713,30.549 4.844,0 L 0,0 Z" />
          </g>
          <g
             transform="translate(159.9063,149.7998)"
             id="g3370">
            <path
               inkscape:connector-curvature="0"
               id="path3372"
               style="fill:#e07226;fill-opacity:1;fill-rule:nonzero;stroke:none"
               d="m 0,0 6.59,0 0,-4.365 -6.59,0 0,-8.946 8.291,0 0,-4.365 -13.092,0 0,30.549 13.092,0 0,-4.363 L 0,8.51 0,0 Z" />
          </g>
          <g
             transform="translate(93.4941,121.9521)"
             id="g3374">
            <path
               inkscape:connector-curvature="0"
               id="path3376"
               style="fill:#414042;fill-opacity:1;fill-rule:nonzero;stroke:none"
               d="m 0,0 c 9.154,0 13.859,-5.477 13.859,-15.059 l 0,-1.88 -8.896,0 0,2.48 c 0,4.277 -1.713,5.902 -4.707,5.902 -2.994,0 -4.705,-1.625 -4.705,-5.902 0,-12.32 18.394,-14.631 18.394,-31.742 0,-9.582 -4.791,-15.057 -14.031,-15.057 -9.24,0 -14.031,5.475 -14.031,15.057 l 0,3.68 8.898,0 0,-4.278 c 0,-4.279 1.883,-5.818 4.877,-5.818 2.994,0 4.877,1.539 4.877,5.818 0,12.32 -18.394,14.629 -18.394,31.74 C -13.859,-5.477 -9.154,0 0,0" />
          </g>
          <g
             transform="translate(122.2422,96.0283)"
             id="g3378">
            <path
               inkscape:connector-curvature="0"
               id="path3380"
               style="fill:#414042;fill-opacity:1;fill-rule:nonzero;stroke:none"
               d="m 0,0 12.92,0 0,-8.555 -12.92,0 0,-17.539 16.256,0 0,-8.556 -25.666,0 0,59.888 25.666,0 0,-8.554 L 0,16.684 0,0 Z" />
          </g>
          <g
             transform="translate(171.6094,83.708)"
             id="g3382">
            <path
               inkscape:connector-curvature="0"
               id="path3384"
               style="fill:#414042;fill-opacity:1;fill-rule:nonzero;stroke:none"
               d="m 0,0 0,-7.957 c 0,-9.582 -4.791,-15.057 -14.031,-15.057 -9.24,0 -14.032,5.475 -14.032,15.057 l 0,31.143 c 0,9.582 4.792,15.058 14.032,15.058 C -4.791,38.244 0,32.768 0,23.186 l 0,-5.817 -8.898,0 0,6.416 c 0,4.278 -1.881,5.903 -4.877,5.903 -2.995,0 -4.875,-1.625 -4.875,-5.903 l 0,-32.34 c 0,-4.279 1.88,-5.818 4.875,-5.818 2.996,0 4.877,1.539 4.877,5.818 L -8.898,0 0,0 Z" />
          </g>
          <g
             transform="translate(186.3262,121.2666)"
             id="g3386">
            <path
               inkscape:connector-curvature="0"
               id="path3388"
               style="fill:#414042;fill-opacity:1;fill-rule:nonzero;stroke:none"
               d="m 0,0 0,-46.199 c 0,-4.278 1.883,-5.819 4.877,-5.819 2.994,0 4.877,1.541 4.877,5.819 l 0,46.199 8.896,0 0,-45.6 c 0,-9.584 -4.791,-15.058 -14.031,-15.058 -9.24,0 -14.031,5.474 -14.031,15.058 L -9.412,0 0,0 Z" />
          </g>
          <g
             transform="translate(220.8066,112.7119)"
             id="g3390">
            <path
               inkscape:connector-curvature="0"
               id="path3392"
               style="fill:#414042;fill-opacity:1;fill-rule:nonzero;stroke:none"
               d="m 0,0 0,-18.395 3.68,0 c 3.508,0 5.646,1.54 5.646,6.331 l 0,5.904 C 9.326,-1.883 7.871,0 4.535,0 L 0,0 Z m 10.268,-51.334 c -0.514,1.541 -0.856,2.48 -0.856,7.357 l 0,9.413 c 0,5.56 -1.883,7.613 -6.16,7.613 l -3.252,0 0,-24.383 -9.41,0 0,59.889 14.201,0 c 9.754,0 13.945,-4.534 13.945,-13.774 l 0,-4.705 c 0,-6.16 -1.966,-10.181 -6.16,-12.15 4.707,-1.967 6.246,-6.502 6.246,-12.748 l 0,-9.239 c 0,-2.91 0.086,-5.048 1.028,-7.273 l -9.582,0 z" />
          </g>
          <path
             inkscape:connector-curvature="0"
             id="path3394"
             style="fill:#414042;fill-opacity:1;fill-rule:nonzero;stroke:none"
             d="m 245.791,121.267 9.41,0 0,-59.889 -9.41,0 0,59.889 z" />
          <g
             transform="translate(259.3086,121.2666)"
             id="g3396">
            <path
               inkscape:connector-curvature="0"
               id="path3398"
               style="fill:#414042;fill-opacity:1;fill-rule:nonzero;stroke:none"
               d="m 0,0 29.088,0 0,-8.555 -9.838,0 0,-51.334 -9.412,0 0,51.334 L 0,-8.555 0,0 Z" />
          </g>
          <g
             transform="translate(301.3164,81.2275)"
             id="g3400">
            <path
               inkscape:connector-curvature="0"
               id="path3402"
               style="fill:#414042;fill-opacity:1;fill-rule:nonzero;stroke:none"
               d="m 0,0 -11.893,40.039 9.84,0 7.186,-27.291 7.187,27.291 8.985,0 L 9.412,0 9.412,-19.85 0,-19.85 0,0 Z" />
          </g>
          <g
             transform="translate(286.9033,130.2598)"
             id="g3404">
            <path
               inkscape:connector-curvature="0"
               id="path3406"
               style="fill:#6d6e71;fill-opacity:1;fill-rule:nonzero;stroke:none"
               d="m 0,0 -6.448,3.716 -0.005,7.44 6.439,3.725 L 6.434,11.167 6.439,3.727 0,0 Z" />
          </g>
          <g
             transform="translate(305.9414,132.9004)"
             id="g3408">
            <path
               inkscape:connector-curvature="0"
               id="path3410"
               style="fill:#bcbec0;fill-opacity:1;fill-rule:nonzero;stroke:none"
               d="m 0,0 -7.489,4.315 -0.007,8.643 7.48,4.328 7.49,-4.315 L 7.48,4.328 0,0 Z" />
          </g>
          <g
             transform="translate(317.6572,150.1865)"
             id="g3412">
            <path
               inkscape:connector-curvature="0"
               id="path3414"
               style="fill:#414042;fill-opacity:1;fill-rule:nonzero;stroke:none"
               d="m 0,0 -8.069,4.649 -0.007,9.312 8.059,4.662 L 8.052,13.975 8.06,4.663 0,0 Z" />
          </g>
          <g
             transform="translate(329.3184,119.0859)"
             id="g3416">
            <path
               inkscape:connector-curvature="0"
               id="path3418"
               style="fill:#414042;fill-opacity:1;fill-rule:nonzero;stroke:none"
               d="m 0,0 0,-1.653 0.427,0 c 0.386,0 0.634,0.165 0.634,0.702 l 0,0.248 C 1.061,-0.221 0.896,0 0.495,0 L 0,0 Z m 1.157,-4.933 c -0.069,0.179 -0.096,0.276 -0.096,0.827 l 0,0.633 c 0,0.635 -0.221,0.855 -0.704,0.855 l -0.357,0 0,-2.315 -1.048,0 0,5.898 1.599,0 c 1.074,0 1.556,-0.51 1.556,-1.544 l 0,-0.124 c 0,-0.702 -0.219,-1.144 -0.715,-1.363 0.537,-0.221 0.715,-0.717 0.715,-1.42 l 0,-0.634 c 0,-0.317 0.014,-0.565 0.124,-0.813 l -1.074,0 z M 0.468,-5.952 c 2.178,0 3.803,1.667 3.803,3.968 0,2.301 -1.625,3.968 -3.803,3.968 -2.177,0 -3.803,-1.667 -3.803,-3.968 0,-2.301 1.626,-3.968 3.803,-3.968 m 0,8.9 c 2.728,0 4.795,-2.066 4.795,-4.932 0,-2.866 -2.067,-4.933 -4.795,-4.933 -2.728,0 -4.795,2.067 -4.795,4.933 0,2.866 2.067,4.932 4.795,4.932" />
          </g>
        </g>
      </g>
    </g>
  </g>
</svg>
